<?xml version="1.0" encoding="UTF-8"?>
<svg id="Layer_16" data-name="Layer 16" xmlns="http://www.w3.org/2000/svg" xmlns:xlink="http://www.w3.org/1999/xlink" viewBox="0 0 506 506">
  <defs>
    <style>
      .cls-1 {
        clip-path: url(#clippath);
      }

      .cls-2 {
        fill: none;
      }

      .cls-2, .cls-3 {
        stroke-width: 0px;
      }

      .cls-3 {
        fill: #fefae0;
      }
    </style>
    <clipPath id="clippath">
      <circle class="cls-2" cx="253" cy="253" r="253"/>
    </clipPath>
  </defs>
  <g id="Layer_15" data-name="Layer 15">
    <g class="cls-1">
      <image width="2000" height="1333" transform="translate(-109) scale(.38)" xlink:href="../../skov_1.jpeg"/>
    </g>
    <path class="cls-3" d="M50,283.33v-75.53h17.72c6.12,0,10.89.84,14.29,2.52,3.46,1.68,5.91,4.26,7.33,7.74,1.48,3.48,2.23,7.89,2.23,13.24v27.6c0,5.47-.74,10.04-2.23,13.71-1.42,3.61-3.84,6.31-7.24,8.11-3.34,1.74-7.95,2.61-13.83,2.61h-18.28ZM63.86,273.63h4.16c3.14,0,5.39-.56,6.74-1.68s2.19-2.73,2.49-4.85c.31-2.18.46-4.82.46-7.92v-28.9c0-3.05-.22-5.5-.65-7.37-.43-1.86-1.32-3.23-2.68-4.1-1.36-.87-3.54-1.31-6.56-1.31h-3.97v56.12ZM101.97,283.33v-75.53h31.87v9.7h-18.02v21.48h13.86v9.7h-13.86v24.94h18.02v9.7h-31.87ZM162.07,283.58c-5.49,0-9.81-1.08-12.96-3.23-3.09-2.15-5.25-5.07-6.48-8.76-1.23-3.75-1.85-8.05-1.85-12.9v-26.64c0-5.1.62-9.52,1.85-13.27,1.23-3.75,3.4-6.64,6.48-8.66,3.15-2.03,7.47-3.04,12.96-3.04,5.19,0,9.23.89,12.13,2.67,2.96,1.72,5.06,4.21,6.3,7.47,1.23,3.26,1.85,7.04,1.85,11.34v6.27h-13.17v-6.45c0-2.09-.12-3.99-.37-5.71-.18-1.72-.76-3.07-1.74-4.06-.92-1.04-2.53-1.57-4.85-1.57s-4.03.55-5.12,1.66c-1.04,1.04-1.71,2.49-2.01,4.33-.31,1.78-.46,3.81-.46,6.08v32.45c0,2.7.21,4.95.64,6.73.43,1.72,1.19,3.04,2.29,3.96,1.16.86,2.71,1.29,4.67,1.29,2.26,0,3.84-.52,4.76-1.57.98-1.11,1.59-2.55,1.83-4.33.24-1.78.37-3.78.37-5.99v-6.73h13.17v5.99c0,4.42-.59,8.36-1.76,11.8-1.17,3.38-3.24,6.05-6.2,8.02-2.9,1.9-7.01,2.86-12.31,2.86ZM192.04,283.33v-75.53h13.86v75.53h-13.86ZM217.68,283.33v-75.53h17.72c6.12,0,10.89.84,14.29,2.52,3.46,1.68,5.91,4.26,7.33,7.74,1.48,3.48,2.23,7.89,2.23,13.24v27.6c0,5.47-.74,10.04-2.23,13.71-1.42,3.61-3.84,6.31-7.24,8.11-3.34,1.74-7.95,2.61-13.83,2.61h-18.28ZM231.54,273.63h4.16c3.14,0,5.39-.56,6.74-1.68,1.36-1.12,2.19-2.73,2.49-4.85.31-2.18.46-4.82.46-7.92v-28.9c0-3.05-.22-5.5-.65-7.37-.43-1.86-1.32-3.23-2.68-4.1-1.35-.87-3.54-1.31-6.56-1.31h-3.97v56.12ZM289.4,284.03c-5.56,0-9.89-1.02-12.98-3.06-3.09-2.04-5.22-4.95-6.4-8.73s-1.76-8.29-1.76-13.56v-50.88h13.86v52.46c0,2.35.16,4.58.47,6.69.31,2.04,1.04,3.71,2.17,5.01,1.19,1.24,2.95,1.86,5.28,1.86,2.45,0,4.21-.62,5.28-1.86,1.13-1.3,1.85-2.97,2.17-5.01.38-2.1.57-4.33.57-6.69v-52.46h12.47v50.88c0,5.26-.59,9.78-1.76,13.56s-3.31,6.69-6.4,8.73c-3.03,2.04-7.35,3.06-12.98,3.06ZM342.31,283.79c-5.29,0-9.5-.98-12.63-2.95s-5.38-4.79-6.73-8.48c-1.35-3.69-2.03-8.05-2.03-13.09v-27.93c0-5.04.68-9.34,2.03-12.91,1.35-3.63,3.6-6.39,6.73-8.3,3.13-1.91,7.34-2.86,12.63-2.86s9.65.95,12.72,2.86c3.13,1.91,5.38,4.67,6.73,8.3,1.41,3.56,2.12,7.87,2.12,12.91v28.03c0,4.98-.71,9.31-2.12,13-1.35,3.63-3.6,6.45-6.73,8.48-3.07,1.97-7.31,2.95-12.72,2.95ZM342.36,273.46c2.25,0,3.89-.49,4.93-1.46,1.1-.97,1.83-2.31,2.19-4.02.37-1.7.55-3.56.55-5.57v-34.05c0-2.07-.18-3.93-.55-5.57-.37-1.64-1.1-2.92-2.19-3.83-1.03-.97-2.68-1.46-4.93-1.46-2.13,0-3.74.49-4.84,1.46-1.1.91-1.83,2.19-2.19,3.83-.37,1.64-.55,3.5-.55,5.57v34.05c0,2.01.15,3.86.46,5.57.37,1.7,1.1,3.04,2.19,4.02,1.1.97,2.74,1.46,4.93,1.46ZM394.72,284.03c-5.56,0-9.89-1.02-12.98-3.06-3.09-2.04-5.22-4.95-6.4-8.73-1.17-3.78-1.76-8.29-1.76-13.56v-50.88h13.17v52.46c0,2.35.16,4.58.47,6.69.31,2.04,1.04,3.71,2.17,5.01,1.19,1.24,2.95,1.86,5.28,1.86,2.45,0,4.21-.62,5.28-1.86,1.13-1.3,1.85-2.97,2.17-5.01.38-2.1.57-4.33.57-6.69v-52.46h13.17v50.88c0,5.26-.59,9.78-1.76,13.56-1.17,3.78-3.31,6.69-6.4,8.73-3.03,2.04-7.35,3.06-12.98,3.06ZM445.57,284.07c-4.52,0-8.29-.87-11.33-2.6-3.03-1.8-5.32-4.39-6.87-7.8-1.55-3.4-2.41-7.58-2.6-12.53l11.79-2.32c.12,2.91.46,5.48,1.02,7.71.62,2.23,1.52,3.96,2.69,5.2,1.24,1.18,2.85,1.76,4.83,1.76,2.23,0,3.81-.65,4.74-1.95.93-1.36,1.39-3.06,1.39-5.11,0-3.28-.74-5.97-2.23-8.08-1.49-2.1-3.47-4.21-5.94-6.31l-9.47-8.36c-2.66-2.29-4.8-4.83-6.41-7.61-1.55-2.85-2.32-6.34-2.32-10.49,0-5.94,1.73-10.52,5.2-13.74,3.47-3.22,8.2-4.83,14.21-4.83,3.53,0,6.47.56,8.82,1.67,2.35,1.05,4.21,2.54,5.57,4.46,1.42,1.92,2.48,4.12,3.16,6.59.68,2.41,1.11,4.98,1.3,7.71l-11.7,2.04c-.12-2.35-.4-4.46-.84-6.31-.37-1.86-1.08-3.31-2.14-4.36-.99-1.05-2.48-1.58-4.46-1.58s-3.62.68-4.74,2.04c-1.05,1.3-1.58,2.94-1.58,4.92,0,2.54.53,4.64,1.58,6.31,1.05,1.61,2.57,3.28,4.55,5.01l9.38,8.26c3.1,2.6,5.73,5.66,7.89,9.19,2.23,3.47,3.34,7.68,3.34,12.63,0,3.59-.8,6.78-2.41,9.56-1.55,2.79-3.74,4.98-6.59,6.59-2.79,1.55-6.07,2.32-9.84,2.32Z"/>
  </g>
</svg>