<?xml version="1.0" encoding="UTF-8"?>
<svg id="Layer_16" data-name="Layer 16" xmlns="http://www.w3.org/2000/svg" xmlns:xlink="http://www.w3.org/1999/xlink" viewBox="0 0 506 506">
  <defs>
    <style>
      .cls-1 {
        clip-path: url(#clippath);
      }

      .cls-2 {
        fill: none;
      }

      .cls-2, .cls-3 {
        stroke-width: 0px;
      }

      .cls-3 {
        fill: #fefae0;
      }
    </style>
    <clipPath id="clippath">
      <circle class="cls-2" cx="253" cy="253" r="253"/>
    </clipPath>
  </defs>
  <g class="cls-1">
    <image width="2000" height="1333" transform="translate(-125.78 -.02) scale(.38)" xlink:href="../../skov_2.jpeg"/>
  </g>
  <g id="Layer_15" data-name="Layer 15">
    <path class="cls-3" d="M61.28,287.79c-5.31,0-9.48-1.03-12.52-3.1-2.98-2.07-5.07-4.87-6.26-8.42-1.19-3.6-1.79-7.74-1.79-12.4v-25.6c0-4.9.6-9.15,1.79-12.76,1.19-3.6,3.28-6.38,6.26-8.33,3.04-1.95,7.22-2.92,12.52-2.92,5.01,0,8.92.86,11.72,2.57,2.86,1.65,4.89,4.05,6.08,7.18,1.19,3.13,1.79,6.76,1.79,10.9v6.02h-13.13v-6.2c0-2.01-.12-3.84-.35-5.49-.17-1.65-.73-2.95-1.66-3.9-.87-1-2.42-1.51-4.63-1.51s-3.85.53-4.9,1.59c-.99,1-1.63,2.39-1.92,4.16-.29,1.71-.44,3.66-.44,5.85v31.18c0,2.6.2,4.75.61,6.47.41,1.65,1.14,2.92,2.19,3.81,1.11.83,2.59,1.24,4.46,1.24,2.16,0,3.67-.5,4.55-1.51.93-1.06,1.52-2.45,1.75-4.16.23-1.71.35-3.63.35-5.76v-6.47h13.13v5.76c0,4.25-.57,8.03-1.7,11.34-1.13,3.25-3.13,5.82-5.99,7.71-2.8,1.83-6.77,2.75-11.9,2.75ZM109.36,288.28c-5.13,0-9.22-.95-12.26-2.86-3.04-1.91-5.22-4.65-6.53-8.24-1.31-3.58-1.97-7.82-1.97-12.71v-27.12c0-4.89.66-9.07,1.97-12.53,1.31-3.52,3.49-6.21,6.53-8.06,3.04-1.85,7.13-2.77,12.26-2.77s9.37.92,12.35,2.77c3.04,1.85,5.22,4.54,6.53,8.06,1.37,3.46,2.06,7.64,2.06,12.53v27.21c0,4.83-.69,9.04-2.06,12.62-1.31,3.52-3.49,6.27-6.53,8.24-2.98,1.91-7.1,2.86-12.35,2.86ZM109.8,278.02c2.17,0,3.75-.47,4.75-1.41,1.05-.94,1.76-2.23,2.11-3.87s.53-3.43.53-5.36v-32.78c0-1.99-.18-3.78-.53-5.36-.35-1.58-1.05-2.81-2.11-3.69-1-.94-2.58-1.41-4.75-1.41-2.05,0-3.6.47-4.66,1.41-1.05.88-1.76,2.11-2.11,3.69-.35,1.58-.53,3.37-.53,5.36v32.78c0,1.93.15,3.72.44,5.36.35,1.64,1.05,2.93,2.11,3.87,1.05.94,2.64,1.41,4.75,1.41ZM140.35,287.28v-71.84h8.8l17.46,40.97v-40.97h10.81v71.84h-9.27l-16.99-42.93v42.93h-10.81ZM189.02,287.28v-71.84h13.13v71.84h-13.13ZM212.96,287.28v-71.84h29.35v8.5h-16.22v20.86h13.13v9.27h-13.13v33.22h-13.13ZM250.04,287.28v-72.61h30.13v9.27h-16.99v20.86h13.13v9.27h-13.13v23.95h16.99v9.27h-30.13ZM287.89,287.28v-71.84h17.21c4.85,0,8.93.59,12.24,1.77,3.37,1.12,5.91,3.07,7.63,5.85,1.77,2.78,2.66,6.56,2.66,11.35,0,2.9-.27,5.5-.8,7.8s-1.45,4.29-2.75,5.94c-1.24,1.6-2.99,2.84-5.23,3.72l10.02,35.39h-13.11l-8.7-33.22h-6.03v33.22h-13.13ZM301.02,245.56h4.06c2.53,0,4.53-.35,6-1.06,1.53-.77,2.62-1.94,3.27-3.53.65-1.65.97-3.74.97-6.27,0-3.59-.68-6.27-2.03-8.03-1.29-1.82-3.8-2.74-7.5-2.74h-4.77v21.63ZM356.55,288.28c-5.13,0-9.22-.95-12.26-2.86s-5.22-4.65-6.53-8.24c-1.31-3.58-1.97-7.82-1.97-12.71v-27.12c0-4.89.66-9.07,1.97-12.53,1.31-3.52,3.49-6.21,6.53-8.06,3.04-1.85,7.13-2.77,12.26-2.77s9.37.92,12.35,2.77c3.04,1.85,5.22,4.54,6.53,8.06,1.37,3.46,2.06,7.64,2.06,12.53v27.21c0,4.83-.69,9.04-2.06,12.62-1.31,3.52-3.49,6.27-6.53,8.24-2.98,1.91-7.1,2.86-12.35,2.86ZM356.98,278.02c2.17,0,3.75-.47,4.75-1.41,1.05-.94,1.76-2.23,2.11-3.87.35-1.64.53-3.43.53-5.36v-32.78c0-1.99-.18-3.78-.53-5.36-.35-1.58-1.05-2.81-2.11-3.69-1-.94-2.58-1.41-4.75-1.41-2.05,0-3.6.47-4.66,1.41-1.05.88-1.76,2.11-2.11,3.69-.35,1.58-.53,3.37-.53,5.36v32.78c0,1.93.15,3.72.44,5.36.35,1.64,1.05,2.93,2.11,3.87,1.05.94,2.64,1.41,4.75,1.41ZM406.85,287.63c-5.29,0-9.4-.98-12.33-2.93-2.94-1.96-4.96-4.74-6.08-8.35s-1.67-7.94-1.67-12.97v-48.7h13.13v50.21c0,2.25.14,4.38.43,6.4.29,1.96.96,3.55,2,4.8,1.1,1.18,2.72,1.78,4.86,1.78,2.26,0,3.88-.59,4.86-1.78,1.04-1.24,1.71-2.84,2-4.8.35-2.01.52-4.15.52-6.4v-50.21h12.36v48.7c0,5.04-.56,9.36-1.67,12.97-1.12,3.61-3.14,6.4-6.08,8.35-2.88,1.96-6.99,2.93-12.33,2.93ZM455.7,288.01c-4.32,0-7.94-.83-10.84-2.49-2.9-1.72-5.1-4.21-6.58-7.47-1.48-3.26-2.31-7.26-2.49-12l11.29-2.22c.12,2.78.44,5.24.98,7.38.59,2.13,1.45,3.79,2.58,4.98,1.18,1.13,2.73,1.69,4.62,1.69,2.13,0,3.64-.62,4.53-1.87.89-1.3,1.33-2.93,1.33-4.89,0-3.14-.71-5.72-2.13-7.73-1.42-2.01-3.32-4.03-5.69-6.04l-9.06-8c-2.55-2.19-4.59-4.62-6.13-7.29-1.48-2.73-2.22-6.07-2.22-10.04,0-5.69,1.66-10.07,4.98-13.15,3.32-3.08,7.85-4.62,13.6-4.62,3.38,0,6.19.53,8.44,1.6,2.25,1.01,4.03,2.43,5.33,4.27,1.36,1.84,2.37,3.94,3.02,6.31.65,2.31,1.07,4.77,1.24,7.38l-11.2,1.96c-.12-2.25-.39-4.27-.8-6.04-.36-1.78-1.04-3.17-2.04-4.18-.95-1.01-2.37-1.51-4.27-1.51s-3.47.65-4.53,1.96c-1.01,1.24-1.51,2.81-1.51,4.71,0,2.43.5,4.44,1.51,6.04,1.01,1.54,2.46,3.14,4.35,4.8l8.98,7.91c2.96,2.49,5.48,5.42,7.55,8.8,2.13,3.32,3.2,7.35,3.2,12.09,0,3.44-.77,6.49-2.31,9.15-1.48,2.67-3.58,4.77-6.31,6.31-2.67,1.48-5.81,2.22-9.42,2.22Z"/>
  </g>
</svg>